<svg class="icon" viewBox="0 0 1024 1024" xmlns="http://www.w3.org/2000/svg" width="200" height="200"><defs><style/></defs><path d="M548.97 374.08c115.734 0 239.105-21.803 239.105 110.656S664.704 853.76 548.97 853.76c-115.691 0-246.827-238.123-246.827-370.581S433.28 374.08 548.971 374.08z" fill="#FB3449"/><path d="M660.565 420.352c8.64 14.293 22.208 30.101 22.208 50.176 0 20.075-16.277 22.443-22.208 22.528-5.93.085-23.488-2.603-23.488-22.677s15.147-36.054 23.488-50.027zm-48.021 100.864c8.619 14.293 22.208 30.101 22.208 50.176 0 20.075-16.277 22.443-22.208 22.528-5.952.085-23.467-2.603-23.467-22.677s15.104-36.032 23.467-50.027zm-52.63 122.283c8.662 14.293 22.23 30.101 22.23 50.176 0 20.074-16.299 22.442-22.23 22.528-5.93.085-23.445-2.603-23.445-22.678s15.104-36.032 23.446-50.026zm-52.863 90.176c8.661 14.293 22.208 30.101 22.208 50.176 0 20.074-16.278 22.442-22.208 22.528-5.931.064-23.467-2.603-23.467-22.678.021-20.074 15.168-36.032 23.467-50.026zm153.514-89.643c8.64 14.293 22.208 30.101 22.208 50.176 0 20.075-16.277 22.443-22.208 22.528-5.93.064-23.488-2.603-23.488-22.677 0-20.096 15.147-36.054 23.488-50.027zm54.251-122.816c8.619 14.293 22.23 30.101 22.23 50.176 0 20.075-16.3 22.443-22.23 22.528-5.93.085-23.488-2.603-23.488-22.677s15.147-36.032 23.488-50.027z" fill="#FF637D"/><path d="M523.03 359.125c57.706-56.768 152.191-74.602 200.277-127.082-7.19 42.346-32.022 80.832-65.536 127.061-54.72-1.13-80.043-3.115-134.742.021z" fill="#009844"/><path d="M453.696 297.088c8.17-51.37 74.005-67.2 85.227-122.005 13.696 42.154 72.469 64.042 86.549 121.493-26.901 17.899-55.723 33.899-82.645 51.797l-89.131-51.285z" fill="#009844"/><path d="M538.752 343.403C485.077 286.656 396.608 266.9 351.851 214.42c6.677 42.326 29.546 80.47 60.736 126.699 50.901-.384 76.437 1.259 126.165 2.283z" fill="#7BC17C"/><path d="M505.707 370.688l-.875-.021a805.461 805.461 0 00-50.475-1.643c-14.336 0-28.032.384-43.925.853-9.003.278-18.752.555-29.781.811a14.293 14.293 0 01-12.267-6.357c-29.099-43.115-55.83-85.739-63.296-132.907a14.443 14.443 0 0125.259-11.605c20.65 24.234 52.373 41.002 85.973 58.752 34.73 18.346 70.656 37.312 98.88 66.709a14.464 14.464 0 01-9.408 25.408h-.085zm-157.974-98.197c9.408 20.97 22.891 43.178 40.214 69.12l21.653-.619c16.107-.47 30.016-.896 44.779-.896 3.456 0 6.89.043 10.346.064-19.328-13.632-40.832-24.981-61.866-36.096-18.688-9.856-37.739-19.925-55.126-31.573z" fill="#231815"/><path d="M508.608 860.48c-120.747 0-228.117-178.432-259.179-307.243a21.653 21.653 0 1142.112-10.154c31.232 129.365 130.667 274.069 217.088 274.069 95.958 0 217.408-215.36 217.408-347.35 0-29.76-6.784-50.837-20.757-64.49-28.757-28.096-88.96-26.688-152.683-25.195-14.378.342-29.269.683-43.989.683-15.445 0-31.21-.427-46.464-.81-46.87-1.238-91.157-2.369-124.459 7.445-13.824 4.096-24.512 9.728-32.64 17.216a21.653 21.653 0 11-29.397-31.808c13.12-12.139 29.397-20.95 49.792-26.966 39.83-11.754 89.643-10.474 137.813-9.216 14.976.384 30.486.79 45.355.79 14.187 0 28.843-.342 42.987-.683 73.066-1.707 142.144-3.307 183.936 37.504 22.741 22.23 33.834 53.461 33.834 95.488 0 68.608-31.104 164.885-79.232 245.312C634.816 807.467 568.64 860.48 508.608 860.48zM257.6 507.392h-.64a21.632 21.632 0 01-21.013-22.293c.17-5.995 1.429-36.971 8.661-57.195a21.653 21.653 0 1140.79 14.635c-3.478 9.685-5.74 29.376-6.145 43.84-.362 11.733-9.962 21.013-21.653 21.013z" fill="#231815"/><path d="M508.608 373.59a14.443 14.443 0 01-10.475-24.385c28.352-29.994 64.683-49.194 99.862-67.754 33.6-17.75 65.344-34.518 85.973-58.752a14.464 14.464 0 0125.259 11.626c-7.467 47.19-34.198 89.771-63.275 132.886a14.293 14.293 0 01-12.288 6.357 5483.52 5483.52 0 01-29.76-.79c-15.872-.469-29.59-.895-43.925-.895-16.278 0-31.83.512-50.496 1.664l-.875.042zm51.37-30.593c14.742 0 28.673.427 44.758.896 6.741.192 13.867.406 21.653.598 17.323-25.942 30.784-48.15 40.214-69.12-17.387 11.669-36.438 21.717-55.104 31.594-21.035 11.115-42.539 22.464-61.867 36.096l10.347-.064z" fill="#231815"/><path d="M508.608 373.568a14.464 14.464 0 01-10.56-24.299c26.09-28.032 54.336-44.245 78.656-56.768-7.595-21.504-21.355-34.133-36.928-48.426-16.533-15.168-35.285-32.363-44.885-61.632a14.464 14.464 0 0127.477-8.982c7.21 22.08 20.97 34.71 36.907 49.323 18.858 17.28 40.213 36.864 48.64 73.984a14.421 14.421 0 01-7.552 16.085c-30.976 15.659-56.619 29.739-81.174 56.107a14.55 14.55 0 01-10.581 4.608z" fill="#231815"/><path d="M508.608 373.59a14.357 14.357 0 01-10.56-4.609c-24.555-26.346-50.197-40.426-81.195-56.106a14.4 14.4 0 01-7.552-16.086c8.427-37.12 29.803-56.704 48.64-73.984 15.936-14.613 29.718-27.221 36.928-49.322a14.464 14.464 0 0127.478 8.981c-9.579 29.27-28.331 46.464-44.886 61.61-15.573 14.294-29.354 26.923-36.906 48.427 24.277 12.544 52.544 28.758 78.634 56.79a14.421 14.421 0 01-10.581 24.298zm-56.192 121.557c-9.941 0-26.795-5.547-26.795-26.304 0-16.512 9.28-30.038 17.43-41.942 2.389-3.477 4.65-6.762 6.528-9.92l3.072-5.162 3.114 5.162c1.643 2.731 3.499 5.526 5.376 8.384 8.15 12.374 17.387 26.39 17.387 43.648 0 19.03-13.333 25.963-25.792 26.155h-.32zm.256-69.568c-1.173 1.749-2.368 3.541-3.648 5.376-7.573 11.05-16.192 23.573-16.192 37.866 0 18.155 16.32 19.072 19.584 19.072v3.606l.235-3.627c5.61-.064 18.624-2.07 18.624-18.923 0-15.104-8.214-27.584-16.171-39.68a554.752 554.752 0 01-2.432-3.69zm-102.635 68.01c-9.962 0-26.837-5.525-26.837-26.282 0-16.512 9.259-30.016 17.45-41.942 2.369-3.498 4.63-6.762 6.529-9.92l3.05-5.162 3.115 5.141c1.643 2.73 3.499 5.525 5.397 8.384 8.128 12.373 17.344 26.39 17.344 43.67 0 19.007-13.312 25.962-25.77 26.133h-.278zm.235-69.525a352.804 352.804 0 01-3.67 5.397c-7.573 11.051-16.17 23.574-16.17 37.846 0 18.154 16.32 19.072 19.605 19.072v3.605l.192-3.605c5.611-.064 18.646-2.07 18.646-18.902 0-15.104-8.235-27.605-16.192-39.701l-2.411-3.712zm54.123 171.947c-9.942 0-26.795-5.526-26.795-26.283 0-16.533 9.28-30.059 17.45-41.963 2.369-3.477 4.609-6.741 6.507-9.898l3.072-5.184 3.115 5.141c1.643 2.73 3.477 5.504 5.355 8.384 8.149 12.373 17.365 26.39 17.365 43.67 0 19.029-13.312 25.962-25.77 26.133h-.3zm.277-69.547l-3.67 5.376c-7.615 11.072-16.191 23.573-16.191 37.888 0 18.155 16.341 19.072 19.584 19.072v3.605l.234-3.605c5.59-.085 18.624-2.07 18.624-18.923 0-15.104-8.213-27.605-16.17-39.701a214.528 214.528 0 01-2.411-3.712z" fill="#231815"/><path d="M439.616 392.597c48.853-1.045 108.523-.405 108.523 55.936S457.877 679.765 408.66 679.765c-24.661 0-55.424-63.232-70.826-99.861-14.72-35.008-25.963-96.405-15.872-130.155 16.085-53.973 68.8-56.085 117.653-57.152z" fill="#FF637D"/><path d="M558.165 418.816c8.619 14.272 22.187 30.101 22.187 50.176 0 20.075-16.277 22.443-22.187 22.528-5.952.085-23.488-2.624-23.488-22.677 0-20.075 15.126-36.032 23.488-50.027zm-51.114 102.4c8.661 14.293 22.208 30.101 22.208 50.176 0 20.075-16.278 22.443-22.208 22.528-5.931.085-23.467-2.603-23.467-22.677.021-20.075 15.168-36.032 23.467-50.027zm-52.587 122.283c8.619 14.293 22.187 30.101 22.187 50.176 0 20.074-16.256 22.442-22.187 22.528-5.952.085-23.488-2.603-23.488-22.678.021-20.074 15.147-36.032 23.488-50.026z" fill="#FF637D"/><path d="M383.317 420.48c16.256-.363 36.118-.15 36.118 18.624 0 18.752-30.038 76.992-46.422 76.992-8.256 0-18.474-21.056-23.594-33.259-4.886-11.648-8.64-32.106-5.312-43.328 5.397-17.962 22.933-18.688 39.21-19.029z" fill="#FFF"/></svg>