<?xml version="1.0" standalone="no"?><!DOCTYPE svg PUBLIC "-//W3C//DTD SVG 1.1//EN" "http://www.w3.org/Graphics/SVG/1.1/DTD/svg11.dtd"><svg t="1610004413189" class="icon" viewBox="0 0 1024 1024" version="1.1" xmlns="http://www.w3.org/2000/svg" p-id="1372" xmlns:xlink="http://www.w3.org/1999/xlink" width="200" height="200"><defs><style type="text/css"></style></defs><path d="M548.970667 374.08c115.733333 0 239.104-21.802667 239.104 110.656S664.704 853.76 548.970667 853.76c-115.690667 0-246.826667-238.122667-246.826667-370.581333s131.136-109.098667 246.826667-109.098667z" fill="#FB3449" p-id="1373"></path><path d="M660.565333 420.352c8.64 14.293333 22.208 30.101333 22.208 50.176 0 20.074667-16.277333 22.442667-22.208 22.528-5.930667 0.085333-23.488-2.602667-23.488-22.677333s15.146667-36.053333 23.488-50.026667zM612.544 521.216c8.618667 14.293333 22.208 30.101333 22.208 50.176 0 20.074667-16.277333 22.442667-22.208 22.528-5.952 0.085333-23.466667-2.602667-23.466667-22.677333s15.104-36.032 23.466667-50.026667zM559.914667 643.498667c8.661333 14.293333 22.229333 30.101333 22.229333 50.176 0 20.074667-16.298667 22.442667-22.229333 22.528-5.930667 0.085333-23.445333-2.602667-23.445334-22.677334s15.104-36.032 23.445334-50.026666zM507.050667 733.674667c8.661333 14.293333 22.208 30.101333 22.208 50.176 0 20.074667-16.277333 22.442667-22.208 22.528-5.930667 0.064-23.466667-2.602667-23.466667-22.677334 0.021333-20.074667 15.168-36.032 23.466667-50.026666zM660.565333 644.032c8.64 14.293333 22.208 30.101333 22.208 50.176 0 20.074667-16.277333 22.442667-22.208 22.528-5.930667 0.064-23.488-2.602667-23.488-22.677333 0-20.096 15.146667-36.053333 23.488-50.026667zM714.816 521.216c8.618667 14.293333 22.229333 30.101333 22.229333 50.176 0 20.074667-16.298667 22.442667-22.229333 22.528-5.930667 0.085333-23.488-2.602667-23.488-22.677333s15.146667-36.032 23.488-50.026667z" fill="#FF637D" p-id="1374"></path><path d="M523.029333 359.125333c57.706667-56.768 152.192-74.602667 200.277334-127.082666-7.189333 42.346667-32.021333 80.832-65.536 127.061333-54.72-1.130667-80.042667-3.114667-134.741334 0.021333z" fill="#009844" p-id="1375"></path><path d="M453.696 297.088c8.170667-51.370667 74.005333-67.2 85.226667-122.005333 13.696 42.154667 72.469333 64.042667 86.549333 121.493333-26.901333 17.898667-55.722667 33.898667-82.645333 51.797333l-89.130667-51.285333z" fill="#009844" p-id="1376"></path><path d="M538.752 343.402667c-53.674667-56.746667-142.144-76.501333-186.901333-128.981334 6.677333 42.325333 29.546667 80.469333 60.736 126.698667 50.901333-0.384 76.437333 1.258667 126.165333 2.282667z" fill="#7BC17C" p-id="1377"></path><path d="M505.706667 370.688l-0.874667-0.021333a805.461333 805.461333 0 0 0-50.474667-1.642667c-14.336 0-28.032 0.384-43.925333 0.853333-9.002667 0.277333-18.752 0.554667-29.781333 0.810667a14.293333 14.293333 0 0 1-12.266667-6.357333c-29.098667-43.114667-55.829333-85.738667-63.296-132.906667a14.442667 14.442667 0 0 1 25.258667-11.605333c20.650667 24.234667 52.373333 41.002667 85.973333 58.752 34.730667 18.346667 70.656 37.312 98.88 66.709333a14.464 14.464 0 0 1-9.408 25.408h-0.085333zM347.733333 272.490667c9.408 20.970667 22.890667 43.178667 40.213334 69.12l21.653333-0.618667c16.106667-0.469333 30.016-0.896 44.778667-0.896 3.456 0 6.890667 0.042667 10.346666 0.064-19.328-13.632-40.832-24.981333-61.866666-36.096-18.688-9.856-37.738667-19.925333-55.125334-31.573333z" fill="#231815" p-id="1378"></path><path d="M508.608 860.48c-120.746667 0-228.117333-178.432-259.178667-307.242667a21.653333 21.653333 0 1 1 42.112-10.154666c31.232 129.365333 130.666667 274.069333 217.088 274.069333 95.957333 0 217.408-215.36 217.408-347.349333 0-29.76-6.784-50.837333-20.757333-64.490667-28.757333-28.096-88.96-26.688-152.682667-25.194667-14.378667 0.341333-29.269333 0.682667-43.989333 0.682667-15.445333 0-31.210667-0.426667-46.464-0.810667-46.869333-1.237333-91.157333-2.368-124.458667 7.445334-13.824 4.096-24.512 9.728-32.64 17.216a21.653333 21.653333 0 1 1-29.397333-31.808c13.12-12.138667 29.397333-20.949333 49.792-26.965334 39.829333-11.754667 89.642667-10.474667 137.813333-9.216 14.976 0.384 30.485333 0.789333 45.354667 0.789334 14.186667 0 28.842667-0.341333 42.986667-0.682667 73.066667-1.706667 142.144-3.306667 183.936 37.504 22.741333 22.229333 33.834667 53.461333 33.834666 95.488 0 68.608-31.104 164.885333-79.232 245.312-55.317333 92.394667-121.493333 145.408-181.525333 145.408zM257.6 507.392h-0.64a21.632 21.632 0 0 1-21.013333-22.293333c0.170667-5.994667 1.429333-36.970667 8.661333-57.194667a21.653333 21.653333 0 1 1 40.789333 14.634667c-3.477333 9.685333-5.738667 29.376-6.144 43.84-0.362667 11.733333-9.962667 21.013333-21.653333 21.013333z" fill="#231815" p-id="1379"></path><path d="M508.608 373.589333a14.442667 14.442667 0 0 1-10.474667-24.384c28.352-29.994667 64.682667-49.194667 99.861334-67.754666 33.6-17.749333 65.344-34.517333 85.973333-58.752a14.464 14.464 0 0 1 25.258667 11.626666c-7.466667 47.189333-34.197333 89.770667-63.274667 132.885334a14.293333 14.293333 0 0 1-12.288 6.357333 5483.52 5483.52 0 0 1-29.76-0.789333c-15.872-0.469333-29.589333-0.896-43.925333-0.896-16.277333 0-31.829333 0.512-50.496 1.664l-0.874667 0.042666z m51.370667-30.592c14.741333 0 28.672 0.426667 44.757333 0.896 6.741333 0.192 13.866667 0.405333 21.653333 0.597334 17.322667-25.941333 30.784-48.149333 40.213334-69.12-17.386667 11.669333-36.437333 21.717333-55.104 31.594666-21.034667 11.114667-42.538667 22.464-61.866667 36.096l10.346667-0.064z" fill="#231815" p-id="1380"></path><path d="M508.608 373.568a14.464 14.464 0 0 1-10.56-24.298667c26.090667-28.032 54.336-44.245333 78.656-56.768-7.594667-21.504-21.354667-34.133333-36.928-48.426666-16.533333-15.168-35.285333-32.362667-44.885333-61.632a14.464 14.464 0 0 1 27.477333-8.981334c7.210667 22.08 20.970667 34.709333 36.906667 49.322667 18.858667 17.28 40.213333 36.864 48.64 73.984a14.421333 14.421333 0 0 1-7.552 16.085333c-30.976 15.658667-56.618667 29.738667-81.173334 56.106667a14.549333 14.549333 0 0 1-10.581333 4.608z" fill="#231815" p-id="1381"></path><path d="M508.608 373.589333a14.357333 14.357333 0 0 1-10.56-4.608c-24.554667-26.346667-50.197333-40.426667-81.194667-56.106666a14.4 14.4 0 0 1-7.552-16.085334c8.426667-37.12 29.802667-56.704 48.64-73.984 15.936-14.613333 29.717333-27.221333 36.928-49.322666a14.464 14.464 0 0 1 27.477334 8.981333c-9.578667 29.269333-28.330667 46.464-44.885334 61.610667-15.573333 14.293333-29.354667 26.922667-36.906666 48.426666 24.277333 12.544 52.544 28.757333 78.634666 56.789334a14.421333 14.421333 0 0 1-10.581333 24.298666zM452.416 495.146667c-9.941333 0-26.794667-5.546667-26.794667-26.304 0-16.512 9.28-30.037333 17.429334-41.941334 2.389333-3.477333 4.650667-6.762667 6.528-9.92l3.072-5.162666 3.114666 5.162666c1.642667 2.730667 3.498667 5.525333 5.376 8.384 8.149333 12.373333 17.386667 26.389333 17.386667 43.648 0 19.029333-13.333333 25.962667-25.792 26.154667h-0.32z m0.256-69.568c-1.173333 1.749333-2.368 3.541333-3.648 5.376-7.573333 11.050667-16.192 23.573333-16.192 37.866666 0 18.154667 16.32 19.072 19.584 19.072v3.605334l0.234667-3.626667c5.610667-0.064 18.624-2.069333 18.624-18.922667 0-15.104-8.213333-27.584-16.170667-39.68a554.752 554.752 0 0 1-2.432-3.690666zM350.037333 493.589333c-9.962667 0-26.837333-5.525333-26.837333-26.282666 0-16.512 9.258667-30.016 17.450667-41.941334 2.368-3.498667 4.629333-6.762667 6.528-9.92l3.050666-5.162666 3.114667 5.141333c1.642667 2.730667 3.498667 5.525333 5.397333 8.384 8.128 12.373333 17.344 26.389333 17.344 43.669333 0 19.008-13.312 25.962667-25.770666 26.133334h-0.277334z m0.234667-69.525333c-1.173333 1.770667-2.389333 3.541333-3.669333 5.397333-7.573333 11.050667-16.170667 23.573333-16.170667 37.845334 0 18.154667 16.32 19.072 19.605333 19.072v3.605333l0.192-3.605333c5.610667-0.064 18.645333-2.069333 18.645334-18.901334 0-15.104-8.234667-27.605333-16.192-39.701333l-2.410667-3.712zM404.394667 596.010667c-9.941333 0-26.794667-5.525333-26.794667-26.282667 0-16.533333 9.28-30.058667 17.450667-41.962667 2.368-3.477333 4.608-6.741333 6.506666-9.898666l3.072-5.184 3.114667 5.141333c1.642667 2.730667 3.477333 5.504 5.354667 8.384 8.149333 12.373333 17.365333 26.389333 17.365333 43.669333 0 19.029333-13.312 25.962667-25.770667 26.133334h-0.298666z m0.277333-69.546667l-3.669333 5.376c-7.616 11.072-16.192 23.573333-16.192 37.888 0 18.154667 16.341333 19.072 19.584 19.072v3.605333l0.234666-3.605333c5.589333-0.085333 18.624-2.069333 18.624-18.922667 0-15.104-8.213333-27.605333-16.170666-39.701333a214.528 214.528 0 0 1-2.410667-3.712z" fill="#231815" p-id="1382"></path><path d="M439.616 392.597333c48.853333-1.045333 108.522667-0.405333 108.522667 55.936s-90.261333 231.232-139.477334 231.232c-24.661333 0-55.424-63.232-70.826666-99.861333-14.72-35.008-25.962667-96.405333-15.872-130.154667 16.085333-53.973333 68.8-56.085333 117.653333-57.152z" fill="#FF637D" p-id="1383"></path><path d="M558.165333 418.816c8.618667 14.272 22.186667 30.101333 22.186667 50.176 0 20.074667-16.277333 22.442667-22.186667 22.528-5.952 0.085333-23.488-2.624-23.488-22.677333 0-20.074667 15.125333-36.032 23.488-50.026667zM507.050667 521.216c8.661333 14.293333 22.208 30.101333 22.208 50.176 0 20.074667-16.277333 22.442667-22.208 22.528-5.930667 0.085333-23.466667-2.602667-23.466667-22.677333 0.021333-20.074667 15.168-36.032 23.466667-50.026667zM454.464 643.498667c8.618667 14.293333 22.186667 30.101333 22.186667 50.176 0 20.074667-16.256 22.442667-22.186667 22.528-5.952 0.085333-23.488-2.602667-23.488-22.677334 0.021333-20.074667 15.146667-36.032 23.488-50.026666z" fill="#FF637D" p-id="1384"></path><path d="M383.317333 420.48c16.256-0.362667 36.117333-0.149333 36.117334 18.624 0 18.752-30.037333 76.992-46.421334 76.992-8.256 0-18.474667-21.056-23.594666-33.258667-4.885333-11.648-8.64-32.106667-5.312-43.328 5.397333-17.962667 22.933333-18.688 39.210666-19.029333z" fill="#FFFFFF" p-id="1385"></path></svg>